<svg xmlns="http://www.w3.org/2000/svg" viewBox="0 0 1120 320" role="img" aria-labelledby="title"><title>TradeRath logo</title><rect width="1120" height="320" fill="none"/><g transform="translate(0 0) scale(.72)"><path d="M73 177A121 121 0 0 1 267 72" fill="none" stroke="#0878F9" stroke-width="18" stroke-linecap="round"/><path d="M73 177A121 121 0 0 1 95 117" fill="none" stroke="#F77A00" stroke-width="18" stroke-linecap="round"/><circle cx="96" cy="114" r="11" fill="#F77A00"/><text x="92" y="211" fill="#062B5C" font-family="Arial,sans-serif" font-size="124" font-weight="800" letter-spacing="-14">TR</text><path d="m210 65 48-21-27 44-18-1-20 28-12-10 21-28z" fill="#062B5C"/><path d="M54 228c38 17 74 19 108 5 31-13 60-14 105 2-27 15-60 28-100 31-42 3-80-10-113-38z" fill="#0878F9"/><path d="M70 252c35 20 71 28 109 23 31-4 55-1 77 7-33 18-72 24-112 16-29-6-53-20-74-46z" fill="#062B5C"/></g><text x="255" y="188" fill="#062B5C" font-family="Arial,sans-serif" font-size="90" font-weight="800" letter-spacing="-5">Trade<tspan fill="#0878F9">Rath</tspan></text></svg>